<svg width="512" height="512" viewBox="0 0 512 512" fill="none" xmlns="http://www.w3.org/2000/svg">
<path d="M505 257C505 291.8 504.3 326.7 505.2 361.5C506.7 423.1 468 470.7 418.7 491.9C398.9 500.4 378.1 504.9 356.6 504.9C289.3 505 221.9 505.9 154.6 504.6C103.9 503.6 62.2 482.4 32.3 440.6C16.6 418.6 9.09998 393.6 9.09998 366.5C9.09998 294.8 9.09998 223.2 9.09998 151.5C9.09998 93 37.6 52.1 88.2 25.5C110.2 14 134.1 9.1 159 9C224.3 9 289.7 8.6 355 9.2C405.7 9.6 448 29 479.2 69.8C496.6 92.6 505 118.8 505 147.6C505 184 505 220.5 505 257ZM46 257C46 293.7 46 330.3 46 367C46 383.4 49.8 398.8 58.3 412.7C80.6 449.2 114.3 467 156.1 467.7C223.2 468.7 290.4 468.1 357.6 467.9C374.1 467.9 390.1 464.5 405 457.4C445.6 438 468.3 407.1 468.1 360.7C467.7 289.7 468 218.7 468 147.7C468 127.6 462.3 109.2 450.4 93C427.4 61.9 395.6 46.6 357.6 46.2C290.6 45.4 223.6 45.9 156.6 46C142.3 46 128.5 48.9 115.1 53.9C78.3 67.6 44.1 102.3 45.7 153.4C46.9 188 46 222.5 46 257Z" fill="white"/>
<path d="M257.6 363C193.1 363 141.1 311.6 141 247.6C140.9 184.6 193.3 133 257.4 133C321.7 132.9 373.9 184.4 374 247.9C374 311.3 321.9 362.9 257.6 363ZM257.6 326C301.5 326 337.1 290.9 337 247.7C336.9 204.9 301.3 169.9 257.6 169.9C213.7 169.9 177.9 204.8 177.9 247.9C178 291.1 213.7 326.1 257.6 326Z" fill="white"/>
<path d="M387.5 98C401 98 412 109.5 412 123.6C411.9 137.7 400.8 149.1 387.3 149C374 148.9 363.1 137.5 363.1 123.7C363 109.6 374 98 387.5 98Z" fill="white"/>
</svg>
